<svg width="1724" height="996" viewBox="0 0 1724 996" fill="none" xmlns="http://www.w3.org/2000/svg">
<g filter="url(#filter0_i_2006_80)">
<rect width="77.9973" height="77.9973" rx="10" transform="matrix(0.866025 0.5 -0.866025 0.5 958.465 56.6261)" fill="#E2DFE9"/>
<rect width="77.9973" height="77.9973" rx="10" transform="matrix(0.866025 0.5 -0.866025 0.5 1033.52 99.9582)" fill="#E2DFE9"/>
<rect width="77.9973" height="77.9973" rx="10" transform="matrix(0.866025 0.5 -0.866025 0.5 1108.57 143.29)" fill="#E2DFE9"/>
<rect width="77.9973" height="77.9973" rx="10" transform="matrix(0.866025 0.5 -0.866025 0.5 1108.57 143.29)" fill="#E2DFE9"/>
<rect width="77.9973" height="77.9973" rx="10" transform="matrix(0.866025 0.5 -0.866025 0.5 1183.62 186.622)" fill="#E2DFE9"/>
<rect width="77.9973" height="77.9973" rx="10" transform="matrix(0.866025 0.5 -0.866025 0.5 1258.68 229.954)" fill="#E2DFE9"/>
<rect width="77.9973" height="77.9973" rx="10" transform="matrix(0.866025 0.5 -0.866025 0.5 1333.73 273.285)" fill="#E2DFE9"/>
<rect width="77.9973" height="77.9973" rx="10" transform="matrix(0.866025 0.5 -0.866025 0.5 1408.78 316.617)" fill="#E2DFE9"/>
<rect width="77.9973" height="77.9973" rx="10" transform="matrix(0.866025 0.5 -0.866025 0.5 1483.84 359.949)" fill="#E2DFE9"/>
<rect width="77.9973" height="77.9973" rx="10" transform="matrix(0.866025 0.5 -0.866025 0.5 1558.89 403.281)" fill="#E2DFE9"/>
<rect width="77.9973" height="77.9973" rx="10" transform="matrix(0.866025 0.5 -0.866025 0.5 164.405 515.077)" fill="#E2DFE9"/>
<rect width="77.9973" height="77.9973" rx="10" transform="matrix(0.866025 0.5 -0.866025 0.5 239.458 558.409)" fill="#E2DFE9"/>
<rect width="77.9973" height="77.9973" rx="10" transform="matrix(0.866025 0.5 -0.866025 0.5 314.511 601.741)" fill="#E2DFE9"/>
<rect width="77.9973" height="77.9973" rx="10" transform="matrix(0.866025 0.5 -0.866025 0.5 389.564 645.073)" fill="#E2DFE9"/>
<rect width="77.9973" height="77.9973" rx="10" transform="matrix(0.866025 0.5 -0.866025 0.5 464.617 688.404)" fill="#E2DFE9"/>
<rect width="77.9973" height="77.9973" rx="10" transform="matrix(0.866025 0.5 -0.866025 0.5 539.67 731.736)" fill="#E2DFE9"/>
<rect width="77.9973" height="77.9973" rx="10" transform="matrix(0.866025 0.5 -0.866025 0.5 614.723 775.068)" fill="#E2DFE9"/>
<rect width="77.9973" height="77.9973" rx="10" transform="matrix(0.866025 0.5 -0.866025 0.5 689.776 818.4)" fill="#E2DFE9"/>
<rect width="77.9973" height="77.9973" rx="10" transform="matrix(0.866025 0.5 -0.866025 0.5 764.829 861.732)" fill="#E2DFE9"/>
<rect width="77.9973" height="77.9973" rx="10" transform="matrix(0.866025 0.5 -0.866025 0.5 764.829 56.6261)" fill="#E2DFE9"/>
<rect width="77.9973" height="77.9973" rx="10" transform="matrix(0.866025 0.5 -0.866025 0.5 689.776 99.9582)" fill="#E2DFE9"/>
<rect width="77.9973" height="77.9973" rx="10" transform="matrix(0.866025 0.5 -0.866025 0.5 689.776 99.9582)" fill="#E2DFE9"/>
<rect width="77.9973" height="77.9973" rx="10" transform="matrix(0.866025 0.5 -0.866025 0.5 614.723 143.29)" fill="#E2DFE9"/>
<rect width="77.9973" height="77.9973" rx="10" transform="matrix(0.866025 0.5 -0.866025 0.5 539.67 186.622)" fill="#E2DFE9"/>
<rect width="77.9973" height="77.9973" rx="10" transform="matrix(0.866025 0.5 -0.866025 0.5 464.617 229.954)" fill="#E2DFE9"/>
<rect width="77.9973" height="77.9973" rx="10" transform="matrix(0.866025 0.5 -0.866025 0.5 389.564 273.285)" fill="#E2DFE9"/>
<rect width="77.9973" height="77.9973" rx="10" transform="matrix(0.866025 0.5 -0.866025 0.5 314.511 316.617)" fill="#E2DFE9"/>
<rect width="77.9973" height="77.9973" rx="10" transform="matrix(0.866025 0.5 -0.866025 0.5 239.458 359.949)" fill="#E2DFE9"/>
<rect width="77.9973" height="77.9973" rx="10" transform="matrix(0.866025 0.5 -0.866025 0.5 164.405 403.281)" fill="#E2DFE9"/>
<rect width="77.9973" height="77.9973" rx="10" transform="matrix(0.866025 0.5 -0.866025 0.5 1558.89 515.077)" fill="#E2DFE9"/>
<rect width="77.9973" height="77.9973" rx="10" transform="matrix(0.866025 0.5 -0.866025 0.5 1483.84 558.409)" fill="#E2DFE9"/>
<rect width="77.9973" height="77.9973" rx="10" transform="matrix(0.866025 0.5 -0.866025 0.5 1408.78 601.741)" fill="#E2DFE9"/>
<rect width="77.9973" height="77.9973" rx="10" transform="matrix(0.866025 0.5 -0.866025 0.5 1333.73 645.073)" fill="#E2DFE9"/>
<rect width="77.9973" height="77.9973" rx="10" transform="matrix(0.866025 0.5 -0.866025 0.5 1258.68 688.404)" fill="#E2DFE9"/>
<rect width="77.9973" height="77.9973" rx="10" transform="matrix(0.866025 0.5 -0.866025 0.5 1183.62 731.736)" fill="#E2DFE9"/>
<rect width="77.9973" height="77.9973" rx="10" transform="matrix(0.866025 0.5 -0.866025 0.5 1108.57 775.068)" fill="#E2DFE9"/>
<rect width="77.9973" height="77.9973" rx="10" transform="matrix(0.866025 0.5 -0.866025 0.5 1033.52 818.4)" fill="#E2DFE9"/>
<rect width="77.9973" height="77.9973" rx="10" transform="matrix(0.866025 0.5 -0.866025 0.5 958.465 861.732)" fill="#E2DFE9"/>
<rect width="103.13" height="103.13" rx="10" transform="matrix(0.866025 0.5 -0.866025 0.5 861.647 0.728088)" fill="#E2DFE9"/>
<rect width="103.13" height="103.13" rx="10" transform="matrix(0.866025 0.5 -0.866025 0.5 1633.94 446.613)" fill="#E2DFE9"/>
<rect width="103.13" height="103.13" rx="10" transform="matrix(0.866025 0.5 -0.866025 0.5 861.647 892.497)" fill="#E2DFE9"/>
<rect width="103.13" height="103.13" rx="10" transform="matrix(0.866025 0.5 -0.866025 0.5 89.3523 446.613)" fill="#E2DFE9"/>
</g>
<defs>
<filter id="filter0_i_2006_80" x="5.1123" y="-2.34297" width="1713.07" height="995.041" filterUnits="userSpaceOnUse" color-interpolation-filters="sRGB">
<feFlood flood-opacity="0" result="BackgroundImageFix"/>
<feBlend mode="normal" in="SourceGraphic" in2="BackgroundImageFix" result="shape"/>
<feColorMatrix in="SourceAlpha" type="matrix" values="0 0 0 0 0 0 0 0 0 0 0 0 0 0 0 0 0 0 127 0" result="hardAlpha"/>
<feOffset dy="-6"/>
<feGaussianBlur stdDeviation="10"/>
<feComposite in2="hardAlpha" operator="arithmetic" k2="-1" k3="1"/>
<feColorMatrix type="matrix" values="0 0 0 0 0.396078 0 0 0 0 0.360784 0 0 0 0 0.498039 0 0 0 0.25 0"/>
<feBlend mode="normal" in2="shape" result="effect1_innerShadow_2006_80"/>
</filter>
</defs>
</svg>
