<svg width="1854" height="1080" viewBox="0 0 1854 1080" fill="none" xmlns="http://www.w3.org/2000/svg">
<rect width="1070" height="1070" rx="10" transform="matrix(0.866025 0.5 -0.866025 0.5 927.263 22)" fill="#632540"/>
<rect width="1070" height="1070" rx="10" transform="matrix(0.866025 0.5 -0.866025 0.5 927.263 12)" fill="#7A2F30"/>
<rect width="1070" height="1070" rx="10" transform="matrix(0.866025 0.5 -0.866025 0.5 927.263 0)" fill="#924C4D"/>
<rect width="1070" height="1070" rx="10" transform="matrix(0.866025 0.5 -0.866025 0.5 927.263 -14.7767)" fill="#6C9A3A"/>
<rect width="1070" height="1070" rx="10" transform="matrix(0.866025 0.5 -0.866025 0.5 927.263 -20.7767)" fill="url(#paint0_radial_2017_2)"/>
<g filter="url(#filter0_ii_2017_2)">
<rect width="1047.65" height="1048.35" rx="70" transform="matrix(0.866025 0.5 -0.866025 0.5 927.614 -12)" fill="#F8E3AF"/>
</g>
<g filter="url(#filter1_di_2017_2)">
<rect width="797.545" height="795.164" rx="44" transform="matrix(0.866025 0.5 -0.866025 0.5 925.632 111)" fill="url(#paint1_radial_2017_2)"/>
</g>
<mask id="path-8-inside-1_2017_2" fill="white">
<rect width="77.9973" height="77.9973" rx="10" transform="matrix(0.866025 0.5 -0.866025 0.5 1024.08 75.4529)"/>
</mask>
<rect width="77.9973" height="77.9973" rx="10" transform="matrix(0.866025 0.5 -0.866025 0.5 1024.08 75.4529)" fill="#8072A7" stroke="#8072A7" stroke-width="77.9973" mask="url(#path-8-inside-1_2017_2)"/>
<mask id="path-9-inside-2_2017_2" fill="white">
<rect width="77.9973" height="77.9973" rx="10" transform="matrix(0.866025 0.5 -0.866025 0.5 1099.13 118.785)"/>
</mask>
<rect width="77.9973" height="77.9973" rx="10" transform="matrix(0.866025 0.5 -0.866025 0.5 1099.13 118.785)" fill="#8072A7" stroke="#8072A7" stroke-width="77.9973" mask="url(#path-9-inside-2_2017_2)"/>
<mask id="path-10-inside-3_2017_2" fill="white">
<rect width="77.9973" height="77.9973" rx="10" transform="matrix(0.866025 0.5 -0.866025 0.5 1174.19 162.116)"/>
</mask>
<rect width="77.9973" height="77.9973" rx="10" transform="matrix(0.866025 0.5 -0.866025 0.5 1174.19 162.116)" fill="#8072A7" stroke="#8072A7" stroke-width="77.9973" mask="url(#path-10-inside-3_2017_2)"/>
<mask id="path-11-inside-4_2017_2" fill="white">
<rect width="77.9973" height="77.9973" rx="10" transform="matrix(0.866025 0.5 -0.866025 0.5 1174.19 162.116)"/>
</mask>
<rect width="77.9973" height="77.9973" rx="10" transform="matrix(0.866025 0.5 -0.866025 0.5 1174.19 162.116)" fill="#8072A7" stroke="#8072A7" stroke-width="77.9973" mask="url(#path-11-inside-4_2017_2)"/>
<mask id="path-12-inside-5_2017_2" fill="white">
<rect width="77.9973" height="77.9973" rx="10" transform="matrix(0.866025 0.5 -0.866025 0.5 1249.24 205.448)"/>
</mask>
<rect width="77.9973" height="77.9973" rx="10" transform="matrix(0.866025 0.5 -0.866025 0.5 1249.24 205.448)" fill="#8072A7" stroke="#8072A7" stroke-width="77.9973" mask="url(#path-12-inside-5_2017_2)"/>
<mask id="path-13-inside-6_2017_2" fill="white">
<rect width="77.9973" height="77.9973" rx="10" transform="matrix(0.866025 0.5 -0.866025 0.5 1324.29 248.78)"/>
</mask>
<rect width="77.9973" height="77.9973" rx="10" transform="matrix(0.866025 0.5 -0.866025 0.5 1324.29 248.78)" fill="#8072A7" stroke="#8072A7" stroke-width="77.9973" mask="url(#path-13-inside-6_2017_2)"/>
<mask id="path-14-inside-7_2017_2" fill="white">
<rect width="77.9973" height="77.9973" rx="10" transform="matrix(0.866025 0.5 -0.866025 0.5 1399.35 292.112)"/>
</mask>
<rect width="77.9973" height="77.9973" rx="10" transform="matrix(0.866025 0.5 -0.866025 0.5 1399.35 292.112)" fill="#8072A7" stroke="#8072A7" stroke-width="77.9973" mask="url(#path-14-inside-7_2017_2)"/>
<mask id="path-15-inside-8_2017_2" fill="white">
<rect width="77.9973" height="77.9973" rx="10" transform="matrix(0.866025 0.5 -0.866025 0.5 1474.4 335.444)"/>
</mask>
<rect width="77.9973" height="77.9973" rx="10" transform="matrix(0.866025 0.5 -0.866025 0.5 1474.4 335.444)" fill="#8072A7" stroke="#8072A7" stroke-width="77.9973" mask="url(#path-15-inside-8_2017_2)"/>
<mask id="path-16-inside-9_2017_2" fill="white">
<rect width="77.9973" height="77.9973" rx="10" transform="matrix(0.866025 0.5 -0.866025 0.5 1549.45 378.775)"/>
</mask>
<rect width="77.9973" height="77.9973" rx="10" transform="matrix(0.866025 0.5 -0.866025 0.5 1549.45 378.775)" fill="#8072A7" stroke="#8072A7" stroke-width="77.9973" mask="url(#path-16-inside-9_2017_2)"/>
<mask id="path-17-inside-10_2017_2" fill="white">
<rect width="77.9973" height="77.9973" rx="10" transform="matrix(0.866025 0.5 -0.866025 0.5 1624.5 422.107)"/>
</mask>
<rect width="77.9973" height="77.9973" rx="10" transform="matrix(0.866025 0.5 -0.866025 0.5 1624.5 422.107)" fill="#8072A7" stroke="#8072A7" stroke-width="77.9973" mask="url(#path-17-inside-10_2017_2)"/>
<mask id="path-18-inside-11_2017_2" fill="white">
<rect width="77.9973" height="77.9973" rx="10" transform="matrix(0.866025 0.5 -0.866025 0.5 230.021 533.904)"/>
</mask>
<rect width="77.9973" height="77.9973" rx="10" transform="matrix(0.866025 0.5 -0.866025 0.5 230.021 533.904)" fill="#8072A7" stroke="#8072A7" stroke-width="77.9973" mask="url(#path-18-inside-11_2017_2)"/>
<mask id="path-19-inside-12_2017_2" fill="white">
<rect width="77.9973" height="77.9973" rx="10" transform="matrix(0.866025 0.5 -0.866025 0.5 305.073 577.236)"/>
</mask>
<rect width="77.9973" height="77.9973" rx="10" transform="matrix(0.866025 0.5 -0.866025 0.5 305.073 577.236)" fill="#8072A7" stroke="#8072A7" stroke-width="77.9973" mask="url(#path-19-inside-12_2017_2)"/>
<mask id="path-20-inside-13_2017_2" fill="white">
<rect width="77.9973" height="77.9973" rx="10" transform="matrix(0.866025 0.5 -0.866025 0.5 380.126 620.567)"/>
</mask>
<rect width="77.9973" height="77.9973" rx="10" transform="matrix(0.866025 0.5 -0.866025 0.5 380.126 620.567)" fill="#8072A7" stroke="#8072A7" stroke-width="77.9973" mask="url(#path-20-inside-13_2017_2)"/>
<mask id="path-21-inside-14_2017_2" fill="white">
<rect width="77.9973" height="77.9973" rx="10" transform="matrix(0.866025 0.5 -0.866025 0.5 455.179 663.899)"/>
</mask>
<rect width="77.9973" height="77.9973" rx="10" transform="matrix(0.866025 0.5 -0.866025 0.5 455.179 663.899)" fill="#8072A7" stroke="#8072A7" stroke-width="77.9973" mask="url(#path-21-inside-14_2017_2)"/>
<mask id="path-22-inside-15_2017_2" fill="white">
<rect width="77.9973" height="77.9973" rx="10" transform="matrix(0.866025 0.5 -0.866025 0.5 530.232 707.231)"/>
</mask>
<rect width="77.9973" height="77.9973" rx="10" transform="matrix(0.866025 0.5 -0.866025 0.5 530.232 707.231)" fill="#8072A7" stroke="#8072A7" stroke-width="77.9973" mask="url(#path-22-inside-15_2017_2)"/>
<mask id="path-23-inside-16_2017_2" fill="white">
<rect width="77.9973" height="77.9973" rx="10" transform="matrix(0.866025 0.5 -0.866025 0.5 605.285 750.563)"/>
</mask>
<rect width="77.9973" height="77.9973" rx="10" transform="matrix(0.866025 0.5 -0.866025 0.5 605.285 750.563)" fill="#8072A7" stroke="#8072A7" stroke-width="77.9973" mask="url(#path-23-inside-16_2017_2)"/>
<mask id="path-24-inside-17_2017_2" fill="white">
<rect width="77.9973" height="77.9973" rx="10" transform="matrix(0.866025 0.5 -0.866025 0.5 680.338 793.894)"/>
</mask>
<rect width="77.9973" height="77.9973" rx="10" transform="matrix(0.866025 0.5 -0.866025 0.5 680.338 793.894)" fill="#8072A7" stroke="#8072A7" stroke-width="77.9973" mask="url(#path-24-inside-17_2017_2)"/>
<mask id="path-25-inside-18_2017_2" fill="white">
<rect width="77.9973" height="77.9973" rx="10" transform="matrix(0.866025 0.5 -0.866025 0.5 755.391 837.226)"/>
</mask>
<rect width="77.9973" height="77.9973" rx="10" transform="matrix(0.866025 0.5 -0.866025 0.5 755.391 837.226)" fill="#8072A7" stroke="#8072A7" stroke-width="77.9973" mask="url(#path-25-inside-18_2017_2)"/>
<mask id="path-26-inside-19_2017_2" fill="white">
<rect width="77.9973" height="77.9973" rx="10" transform="matrix(0.866025 0.5 -0.866025 0.5 830.444 880.559)"/>
</mask>
<rect width="77.9973" height="77.9973" rx="10" transform="matrix(0.866025 0.5 -0.866025 0.5 830.444 880.559)" fill="#8072A7" stroke="#8072A7" stroke-width="77.9973" mask="url(#path-26-inside-19_2017_2)"/>
<mask id="path-27-inside-20_2017_2" fill="white">
<rect width="77.9973" height="77.9973" rx="10" transform="matrix(0.866025 0.5 -0.866025 0.5 830.444 75.4529)"/>
</mask>
<rect width="77.9973" height="77.9973" rx="10" transform="matrix(0.866025 0.5 -0.866025 0.5 830.444 75.4529)" fill="#8072A7" stroke="#8072A7" stroke-width="77.9973" mask="url(#path-27-inside-20_2017_2)"/>
<mask id="path-28-inside-21_2017_2" fill="white">
<rect width="77.9973" height="77.9973" rx="10" transform="matrix(0.866025 0.5 -0.866025 0.5 755.391 118.785)"/>
</mask>
<rect width="77.9973" height="77.9973" rx="10" transform="matrix(0.866025 0.5 -0.866025 0.5 755.391 118.785)" fill="#8072A7" stroke="#8072A7" stroke-width="77.9973" mask="url(#path-28-inside-21_2017_2)"/>
<mask id="path-29-inside-22_2017_2" fill="white">
<rect width="77.9973" height="77.9973" rx="10" transform="matrix(0.866025 0.5 -0.866025 0.5 755.391 118.785)"/>
</mask>
<rect width="77.9973" height="77.9973" rx="10" transform="matrix(0.866025 0.5 -0.866025 0.5 755.391 118.785)" fill="#8072A7" stroke="#8072A7" stroke-width="77.9973" mask="url(#path-29-inside-22_2017_2)"/>
<mask id="path-30-inside-23_2017_2" fill="white">
<rect width="77.9973" height="77.9973" rx="10" transform="matrix(0.866025 0.5 -0.866025 0.5 680.338 162.117)"/>
</mask>
<rect width="77.9973" height="77.9973" rx="10" transform="matrix(0.866025 0.5 -0.866025 0.5 680.338 162.117)" fill="#8072A7" stroke="#8072A7" stroke-width="77.9973" mask="url(#path-30-inside-23_2017_2)"/>
<mask id="path-31-inside-24_2017_2" fill="white">
<rect width="77.9973" height="77.9973" rx="10" transform="matrix(0.866025 0.5 -0.866025 0.5 605.285 205.449)"/>
</mask>
<rect width="77.9973" height="77.9973" rx="10" transform="matrix(0.866025 0.5 -0.866025 0.5 605.285 205.449)" fill="#8072A7" stroke="#8072A7" stroke-width="77.9973" mask="url(#path-31-inside-24_2017_2)"/>
<mask id="path-32-inside-25_2017_2" fill="white">
<rect width="77.9973" height="77.9973" rx="10" transform="matrix(0.866025 0.5 -0.866025 0.5 530.232 248.78)"/>
</mask>
<rect width="77.9973" height="77.9973" rx="10" transform="matrix(0.866025 0.5 -0.866025 0.5 530.232 248.78)" fill="#8072A7" stroke="#8072A7" stroke-width="77.9973" mask="url(#path-32-inside-25_2017_2)"/>
<mask id="path-33-inside-26_2017_2" fill="white">
<rect width="77.9973" height="77.9973" rx="10" transform="matrix(0.866025 0.5 -0.866025 0.5 455.179 292.112)"/>
</mask>
<rect width="77.9973" height="77.9973" rx="10" transform="matrix(0.866025 0.5 -0.866025 0.5 455.179 292.112)" fill="#8072A7" stroke="#8072A7" stroke-width="77.9973" mask="url(#path-33-inside-26_2017_2)"/>
<mask id="path-34-inside-27_2017_2" fill="white">
<rect width="77.9973" height="77.9973" rx="10" transform="matrix(0.866025 0.5 -0.866025 0.5 380.126 335.444)"/>
</mask>
<rect width="77.9973" height="77.9973" rx="10" transform="matrix(0.866025 0.5 -0.866025 0.5 380.126 335.444)" fill="#8072A7" stroke="#8072A7" stroke-width="77.9973" mask="url(#path-34-inside-27_2017_2)"/>
<mask id="path-35-inside-28_2017_2" fill="white">
<rect width="77.9973" height="77.9973" rx="10" transform="matrix(0.866025 0.5 -0.866025 0.5 305.073 378.776)"/>
</mask>
<rect width="77.9973" height="77.9973" rx="10" transform="matrix(0.866025 0.5 -0.866025 0.5 305.073 378.776)" fill="#8072A7" stroke="#8072A7" stroke-width="77.9973" mask="url(#path-35-inside-28_2017_2)"/>
<mask id="path-36-inside-29_2017_2" fill="white">
<rect width="77.9973" height="77.9973" rx="10" transform="matrix(0.866025 0.5 -0.866025 0.5 230.021 422.108)"/>
</mask>
<rect width="77.9973" height="77.9973" rx="10" transform="matrix(0.866025 0.5 -0.866025 0.5 230.021 422.108)" fill="#8072A7" stroke="#8072A7" stroke-width="77.9973" mask="url(#path-36-inside-29_2017_2)"/>
<mask id="path-37-inside-30_2017_2" fill="white">
<rect width="77.9973" height="77.9973" rx="10" transform="matrix(0.866025 0.5 -0.866025 0.5 1624.5 533.904)"/>
</mask>
<rect width="77.9973" height="77.9973" rx="10" transform="matrix(0.866025 0.5 -0.866025 0.5 1624.5 533.904)" fill="#8072A7" stroke="#8072A7" stroke-width="77.9973" mask="url(#path-37-inside-30_2017_2)"/>
<mask id="path-38-inside-31_2017_2" fill="white">
<rect width="77.9973" height="77.9973" rx="10" transform="matrix(0.866025 0.5 -0.866025 0.5 1549.45 577.235)"/>
</mask>
<rect width="77.9973" height="77.9973" rx="10" transform="matrix(0.866025 0.5 -0.866025 0.5 1549.45 577.235)" fill="#8072A7" stroke="#8072A7" stroke-width="77.9973" mask="url(#path-38-inside-31_2017_2)"/>
<mask id="path-39-inside-32_2017_2" fill="white">
<rect width="77.9973" height="77.9973" rx="10" transform="matrix(0.866025 0.5 -0.866025 0.5 1474.4 620.567)"/>
</mask>
<rect width="77.9973" height="77.9973" rx="10" transform="matrix(0.866025 0.5 -0.866025 0.5 1474.4 620.567)" fill="#8072A7" stroke="#8072A7" stroke-width="77.9973" mask="url(#path-39-inside-32_2017_2)"/>
<mask id="path-40-inside-33_2017_2" fill="white">
<rect width="77.9973" height="77.9973" rx="10" transform="matrix(0.866025 0.5 -0.866025 0.5 1399.35 663.899)"/>
</mask>
<rect width="77.9973" height="77.9973" rx="10" transform="matrix(0.866025 0.5 -0.866025 0.5 1399.35 663.899)" fill="#8072A7" stroke="#8072A7" stroke-width="77.9973" mask="url(#path-40-inside-33_2017_2)"/>
<mask id="path-41-inside-34_2017_2" fill="white">
<rect width="77.9973" height="77.9973" rx="10" transform="matrix(0.866025 0.5 -0.866025 0.5 1324.29 707.231)"/>
</mask>
<rect width="77.9973" height="77.9973" rx="10" transform="matrix(0.866025 0.5 -0.866025 0.5 1324.29 707.231)" fill="#8072A7" stroke="#8072A7" stroke-width="77.9973" mask="url(#path-41-inside-34_2017_2)"/>
<mask id="path-42-inside-35_2017_2" fill="white">
<rect width="77.9973" height="77.9973" rx="10" transform="matrix(0.866025 0.5 -0.866025 0.5 1249.24 750.563)"/>
</mask>
<rect width="77.9973" height="77.9973" rx="10" transform="matrix(0.866025 0.5 -0.866025 0.5 1249.24 750.563)" fill="#8072A7" stroke="#8072A7" stroke-width="77.9973" mask="url(#path-42-inside-35_2017_2)"/>
<mask id="path-43-inside-36_2017_2" fill="white">
<rect width="77.9973" height="77.9973" rx="10" transform="matrix(0.866025 0.5 -0.866025 0.5 1174.19 793.895)"/>
</mask>
<rect width="77.9973" height="77.9973" rx="10" transform="matrix(0.866025 0.5 -0.866025 0.5 1174.19 793.895)" fill="#8072A7" stroke="#8072A7" stroke-width="77.9973" mask="url(#path-43-inside-36_2017_2)"/>
<mask id="path-44-inside-37_2017_2" fill="white">
<rect width="77.9973" height="77.9973" rx="10" transform="matrix(0.866025 0.5 -0.866025 0.5 1099.13 837.226)"/>
</mask>
<rect width="77.9973" height="77.9973" rx="10" transform="matrix(0.866025 0.5 -0.866025 0.5 1099.13 837.226)" fill="#8072A7" stroke="#8072A7" stroke-width="77.9973" mask="url(#path-44-inside-37_2017_2)"/>
<mask id="path-45-inside-38_2017_2" fill="white">
<rect width="77.9973" height="77.9973" rx="10" transform="matrix(0.866025 0.5 -0.866025 0.5 1024.08 880.559)"/>
</mask>
<rect width="77.9973" height="77.9973" rx="10" transform="matrix(0.866025 0.5 -0.866025 0.5 1024.08 880.559)" fill="#8072A7" stroke="#8072A7" stroke-width="77.9973" mask="url(#path-45-inside-38_2017_2)"/>
<mask id="path-46-inside-39_2017_2" fill="white">
<rect width="103.13" height="103.13" rx="10" transform="matrix(0.866025 0.5 -0.866025 0.5 927.263 19.5549)"/>
</mask>
<rect width="103.13" height="103.13" rx="10" transform="matrix(0.866025 0.5 -0.866025 0.5 927.263 19.5549)" fill="#8072A7" stroke="#8072A7" stroke-width="103.13" mask="url(#path-46-inside-39_2017_2)"/>
<mask id="path-47-inside-40_2017_2" fill="white">
<rect width="103.13" height="103.13" rx="10" transform="matrix(0.866025 0.5 -0.866025 0.5 1699.56 465.439)"/>
</mask>
<rect width="103.13" height="103.13" rx="10" transform="matrix(0.866025 0.5 -0.866025 0.5 1699.56 465.439)" fill="#8072A7" stroke="#8072A7" stroke-width="103.13" mask="url(#path-47-inside-40_2017_2)"/>
<mask id="path-48-inside-41_2017_2" fill="white">
<rect width="103.13" height="103.13" rx="10" transform="matrix(0.866025 0.5 -0.866025 0.5 927.262 911.324)"/>
</mask>
<rect width="103.13" height="103.13" rx="10" transform="matrix(0.866025 0.5 -0.866025 0.5 927.262 911.324)" fill="#8072A7" stroke="#8072A7" stroke-width="103.13" mask="url(#path-48-inside-41_2017_2)"/>
<mask id="path-49-inside-42_2017_2" fill="white">
<rect width="103.13" height="103.13" rx="10" transform="matrix(0.866025 0.5 -0.866025 0.5 154.968 465.44)"/>
</mask>
<rect width="103.13" height="103.13" rx="10" transform="matrix(0.866025 0.5 -0.866025 0.5 154.968 465.44)" fill="#8072A7" stroke="#8072A7" stroke-width="103.13" mask="url(#path-49-inside-42_2017_2)"/>
<g filter="url(#filter2_i_2017_2)">
<rect width="77.9973" height="77.9973" rx="10" transform="matrix(0.866025 0.5 -0.866025 0.5 1024.08 66.8494)" fill="#E2DFE9"/>
<rect width="77.9973" height="77.9973" rx="10" transform="matrix(0.866025 0.5 -0.866025 0.5 1099.13 110.182)" fill="#E2DFE9"/>
<rect width="77.9973" height="77.9973" rx="10" transform="matrix(0.866025 0.5 -0.866025 0.5 1174.19 153.513)" fill="#E2DFE9"/>
<rect width="77.9973" height="77.9973" rx="10" transform="matrix(0.866025 0.5 -0.866025 0.5 1174.19 153.513)" fill="#E2DFE9"/>
<rect width="77.9973" height="77.9973" rx="10" transform="matrix(0.866025 0.5 -0.866025 0.5 1249.24 196.845)" fill="#E2DFE9"/>
<rect width="77.9973" height="77.9973" rx="10" transform="matrix(0.866025 0.5 -0.866025 0.5 1324.29 240.177)" fill="#E2DFE9"/>
<rect width="77.9973" height="77.9973" rx="10" transform="matrix(0.866025 0.5 -0.866025 0.5 1399.35 283.509)" fill="#E2DFE9"/>
<rect width="77.9973" height="77.9973" rx="10" transform="matrix(0.866025 0.5 -0.866025 0.5 1474.4 326.841)" fill="#E2DFE9"/>
<rect width="77.9973" height="77.9973" rx="10" transform="matrix(0.866025 0.5 -0.866025 0.5 1549.45 370.172)" fill="#E2DFE9"/>
<rect width="77.9973" height="77.9973" rx="10" transform="matrix(0.866025 0.5 -0.866025 0.5 1624.5 413.504)" fill="#E2DFE9"/>
<rect width="77.9973" height="77.9973" rx="10" transform="matrix(0.866025 0.5 -0.866025 0.5 230.021 525.3)" fill="#E2DFE9"/>
<rect width="77.9973" height="77.9973" rx="10" transform="matrix(0.866025 0.5 -0.866025 0.5 305.074 568.632)" fill="#E2DFE9"/>
<rect width="77.9973" height="77.9973" rx="10" transform="matrix(0.866025 0.5 -0.866025 0.5 380.127 611.964)" fill="#E2DFE9"/>
<rect width="77.9973" height="77.9973" rx="10" transform="matrix(0.866025 0.5 -0.866025 0.5 455.18 655.296)" fill="#E2DFE9"/>
<rect width="77.9973" height="77.9973" rx="10" transform="matrix(0.866025 0.5 -0.866025 0.5 530.233 698.628)" fill="#E2DFE9"/>
<rect width="77.9973" height="77.9973" rx="10" transform="matrix(0.866025 0.5 -0.866025 0.5 605.286 741.96)" fill="#E2DFE9"/>
<rect width="77.9973" height="77.9973" rx="10" transform="matrix(0.866025 0.5 -0.866025 0.5 680.338 785.291)" fill="#E2DFE9"/>
<rect width="77.9973" height="77.9973" rx="10" transform="matrix(0.866025 0.5 -0.866025 0.5 755.392 828.623)" fill="#E2DFE9"/>
<rect width="77.9973" height="77.9973" rx="10" transform="matrix(0.866025 0.5 -0.866025 0.5 830.444 871.955)" fill="#E2DFE9"/>
<rect width="77.9973" height="77.9973" rx="10" transform="matrix(0.866025 0.5 -0.866025 0.5 830.444 66.8494)" fill="#E2DFE9"/>
<rect width="77.9973" height="77.9973" rx="10" transform="matrix(0.866025 0.5 -0.866025 0.5 755.392 110.182)" fill="#E2DFE9"/>
<rect width="77.9973" height="77.9973" rx="10" transform="matrix(0.866025 0.5 -0.866025 0.5 755.392 110.182)" fill="#E2DFE9"/>
<rect width="77.9973" height="77.9973" rx="10" transform="matrix(0.866025 0.5 -0.866025 0.5 680.338 153.513)" fill="#E2DFE9"/>
<rect width="77.9973" height="77.9973" rx="10" transform="matrix(0.866025 0.5 -0.866025 0.5 605.286 196.845)" fill="#E2DFE9"/>
<rect width="77.9973" height="77.9973" rx="10" transform="matrix(0.866025 0.5 -0.866025 0.5 530.232 240.177)" fill="#E2DFE9"/>
<rect width="77.9973" height="77.9973" rx="10" transform="matrix(0.866025 0.5 -0.866025 0.5 455.18 283.509)" fill="#E2DFE9"/>
<rect width="77.9973" height="77.9973" rx="10" transform="matrix(0.866025 0.5 -0.866025 0.5 380.127 326.841)" fill="#E2DFE9"/>
<rect width="77.9973" height="77.9973" rx="10" transform="matrix(0.866025 0.5 -0.866025 0.5 305.074 370.172)" fill="#E2DFE9"/>
<rect width="77.9973" height="77.9973" rx="10" transform="matrix(0.866025 0.5 -0.866025 0.5 230.021 413.504)" fill="#E2DFE9"/>
<rect width="77.9973" height="77.9973" rx="10" transform="matrix(0.866025 0.5 -0.866025 0.5 1624.5 525.3)" fill="#E2DFE9"/>
<rect width="77.9973" height="77.9973" rx="10" transform="matrix(0.866025 0.5 -0.866025 0.5 1549.45 568.632)" fill="#E2DFE9"/>
<rect width="77.9973" height="77.9973" rx="10" transform="matrix(0.866025 0.5 -0.866025 0.5 1474.4 611.964)" fill="#E2DFE9"/>
<rect width="77.9973" height="77.9973" rx="10" transform="matrix(0.866025 0.5 -0.866025 0.5 1399.35 655.296)" fill="#E2DFE9"/>
<rect width="77.9973" height="77.9973" rx="10" transform="matrix(0.866025 0.5 -0.866025 0.5 1324.29 698.628)" fill="#E2DFE9"/>
<rect width="77.9973" height="77.9973" rx="10" transform="matrix(0.866025 0.5 -0.866025 0.5 1249.24 741.96)" fill="#E2DFE9"/>
<rect width="77.9973" height="77.9973" rx="10" transform="matrix(0.866025 0.5 -0.866025 0.5 1174.19 785.292)" fill="#E2DFE9"/>
<rect width="77.9973" height="77.9973" rx="10" transform="matrix(0.866025 0.5 -0.866025 0.5 1099.13 828.623)" fill="#E2DFE9"/>
<rect width="77.9973" height="77.9973" rx="10" transform="matrix(0.866025 0.5 -0.866025 0.5 1024.08 871.955)" fill="#E2DFE9"/>
<rect width="103.13" height="103.13" rx="10" transform="matrix(0.866025 0.5 -0.866025 0.5 927.263 10.9514)" fill="#E2DFE9"/>
<rect width="103.13" height="103.13" rx="10" transform="matrix(0.866025 0.5 -0.866025 0.5 1699.56 456.836)" fill="#E2DFE9"/>
<rect width="103.13" height="103.13" rx="10" transform="matrix(0.866025 0.5 -0.866025 0.5 927.263 902.721)" fill="#E2DFE9"/>
<rect width="103.13" height="103.13" rx="10" transform="matrix(0.866025 0.5 -0.866025 0.5 154.968 456.836)" fill="#E2DFE9"/>
</g>
<defs>
<filter id="filter0_ii_2017_2" x="55.2236" y="6.50253" width="1744.17" height="1013.99" filterUnits="userSpaceOnUse" color-interpolation-filters="sRGB">
<feFlood flood-opacity="0" result="BackgroundImageFix"/>
<feBlend mode="normal" in="SourceGraphic" in2="BackgroundImageFix" result="shape"/>
<feColorMatrix in="SourceAlpha" type="matrix" values="0 0 0 0 0 0 0 0 0 0 0 0 0 0 0 0 0 0 127 0" result="hardAlpha"/>
<feOffset dy="5"/>
<feGaussianBlur stdDeviation="5"/>
<feComposite in2="hardAlpha" operator="arithmetic" k2="-1" k3="1"/>
<feColorMatrix type="matrix" values="0 0 0 0 0.870588 0 0 0 0 0.529412 0 0 0 0 0.478431 0 0 0 0.75 0"/>
<feBlend mode="normal" in2="shape" result="effect1_innerShadow_2017_2"/>
<feColorMatrix in="SourceAlpha" type="matrix" values="0 0 0 0 0 0 0 0 0 0 0 0 0 0 0 0 0 0 127 0" result="hardAlpha"/>
<feOffset dy="-3"/>
<feGaussianBlur stdDeviation="1"/>
<feComposite in2="hardAlpha" operator="arithmetic" k2="-1" k3="1"/>
<feColorMatrix type="matrix" values="0 0 0 0 0.424887 0 0 0 0 0.607692 0 0 0 0 0.277552 0 0 0 1 0"/>
<feBlend mode="normal" in2="effect1_innerShadow_2017_2" result="effect2_innerShadow_2017_2"/>
</filter>
<filter id="filter1_di_2017_2" x="251.121" y="119.887" width="1351.08" height="791.78" filterUnits="userSpaceOnUse" color-interpolation-filters="sRGB">
<feFlood flood-opacity="0" result="BackgroundImageFix"/>
<feColorMatrix in="SourceAlpha" type="matrix" values="0 0 0 0 0 0 0 0 0 0 0 0 0 0 0 0 0 0 127 0" result="hardAlpha"/>
<feOffset dy="9"/>
<feGaussianBlur stdDeviation="4.1"/>
<feComposite in2="hardAlpha" operator="out"/>
<feColorMatrix type="matrix" values="0 0 0 0 0.870588 0 0 0 0 0.529412 0 0 0 0 0.478431 0 0 0 0.33 0"/>
<feBlend mode="normal" in2="BackgroundImageFix" result="effect1_dropShadow_2017_2"/>
<feBlend mode="normal" in="SourceGraphic" in2="effect1_dropShadow_2017_2" result="shape"/>
<feColorMatrix in="SourceAlpha" type="matrix" values="0 0 0 0 0 0 0 0 0 0 0 0 0 0 0 0 0 0 127 0" result="hardAlpha"/>
<feOffset dy="-6"/>
<feGaussianBlur stdDeviation="2"/>
<feComposite in2="hardAlpha" operator="arithmetic" k2="-1" k3="1"/>
<feColorMatrix type="matrix" values="0 0 0 0 0.29359 0 0 0 0 0.419231 0 0 0 0 0.183413 0 0 0 0.4 0"/>
<feBlend mode="normal" in2="shape" result="effect2_innerShadow_2017_2"/>
</filter>
<filter id="filter2_i_2017_2" x="70.728" y="7.88036" width="1713.07" height="995.041" filterUnits="userSpaceOnUse" color-interpolation-filters="sRGB">
<feFlood flood-opacity="0" result="BackgroundImageFix"/>
<feBlend mode="normal" in="SourceGraphic" in2="BackgroundImageFix" result="shape"/>
<feColorMatrix in="SourceAlpha" type="matrix" values="0 0 0 0 0 0 0 0 0 0 0 0 0 0 0 0 0 0 127 0" result="hardAlpha"/>
<feOffset dy="-6"/>
<feGaussianBlur stdDeviation="10"/>
<feComposite in2="hardAlpha" operator="arithmetic" k2="-1" k3="1"/>
<feColorMatrix type="matrix" values="0 0 0 0 0.396078 0 0 0 0 0.360784 0 0 0 0 0.498039 0 0 0 0.25 0"/>
<feBlend mode="normal" in2="shape" result="effect1_innerShadow_2017_2"/>
</filter>
<radialGradient id="paint0_radial_2017_2" cx="0" cy="0" r="1" gradientTransform="matrix(434.973 2223.03 -1624.74 -548.084 508.91 467.644)" gradientUnits="userSpaceOnUse">
<stop stop-color="#8CCD44"/>
<stop offset="1" stop-color="#56A43E"/>
</radialGradient>
<radialGradient id="paint1_radial_2017_2" cx="0" cy="0" r="1" gradientTransform="matrix(380.522 928.625 -1297.38 -147.227 379.326 347.526)" gradientUnits="userSpaceOnUse">
<stop stop-color="#84D859"/>
<stop offset="0.528846" stop-color="#70C14E"/>
<stop offset="1" stop-color="#56A43E"/>
</radialGradient>
</defs>
</svg>
